<?xml version="1.0" encoding="UTF-8" standalone="no"?>
<!-- Created with Inkscape (http://www.inkscape.org/) -->

<svg
   xmlns:dc="http://purl.org/dc/elements/1.1/"
   xmlns:cc="http://creativecommons.org/ns#"
   xmlns:rdf="http://www.w3.org/1999/02/22-rdf-syntax-ns#"
   xmlns:svg="http://www.w3.org/2000/svg"
   xmlns="http://www.w3.org/2000/svg"
   xmlns:sodipodi="http://sodipodi.sourceforge.net/DTD/sodipodi-0.dtd"
   xmlns:inkscape="http://www.inkscape.org/namespaces/inkscape"
   id="svg2"
   version="1.1"
   inkscape:version="0.48.4 r9939"
   width="450"
   height="315"
   xml:space="preserve"
   sodipodi:docname="NoPath3H DEF.eps"
   inkscape:export-filename="/home/qdu/Documents/ENA/OpenSource/Steffi/website/images/Results.png"
   inkscape:export-xdpi="90.209999"
   inkscape:export-ydpi="90.209999"><metadata
     id="metadata8"><rdf:RDF><cc:Work
         rdf:about=""><dc:format>image/svg+xml</dc:format><dc:type
           rdf:resource="http://purl.org/dc/dcmitype/StillImage" /><dc:title></dc:title></cc:Work></rdf:RDF></metadata><defs
     id="defs6" /><sodipodi:namedview
     pagecolor="#ffffff"
     bordercolor="#666666"
     borderopacity="1"
     objecttolerance="10"
     gridtolerance="10"
     guidetolerance="10"
     inkscape:pageopacity="0"
     inkscape:pageshadow="2"
     inkscape:window-width="1868"
     inkscape:window-height="1056"
     id="namedview4"
     showgrid="false"
     inkscape:zoom="2.1190756"
     inkscape:cx="211.26044"
     inkscape:cy="171.90594"
     inkscape:window-x="52"
     inkscape:window-y="24"
     inkscape:window-maximized="1"
     inkscape:current-layer="g10" /><g
     id="g10"
     inkscape:groupmode="layer"
     inkscape:label="ink_ext_XXXXXX"
     transform="matrix(1.25,0,0,-1.25,0,315)"><path
       inkscape:connector-curvature="0"
       id="path14"
       style="fill:none;stroke:#000000;stroke-width:0.5;stroke-linecap:butt;stroke-linejoin:miter;stroke-miterlimit:3.79999995;stroke-opacity:1;stroke-dasharray:none"
       d="m 46.9,51.5 3.15,0 m 297.3,0 -3.15,0" /><g
       id="g16"><text
         id="text18"
         transform="matrix(1,0,0,-1,38.8085,49.1648)"><tspan
           id="tspan20"
           y="0"
           x="0"
           style="font-size:7px;font-variant:normal;font-weight:normal;writing-mode:lr-tb;fill:#000000;fill-opacity:1;fill-rule:nonzero;stroke:none;font-family:Helvetica;-inkscape-font-specification:Helvetica">1</tspan></text>
</g><path
       inkscape:connector-curvature="0"
       id="path22"
       style="fill:none;stroke:#000000;stroke-width:0.5;stroke-linecap:butt;stroke-linejoin:miter;stroke-miterlimit:3.79999995;stroke-opacity:1;stroke-dasharray:none"
       d="m 46.9,61.15 1.55,0 m 298.9,0 -1.55,0 m -298.9,12.7 1.55,0 m 298.9,0 -1.55,0 m -298.9,6.55 1.55,0 m 298.9,0 -1.55,0 m -298.9,3.1 3.15,0 m 297.3,0 -3.15,0" /><g
       id="g24"><text
         id="text26"
         transform="matrix(1,0,0,-1,34.9167,81.1648)"><tspan
           id="tspan28"
           sodipodi:role="line"
           y="0"
           x="0 3.892"
           style="font-size:7px;font-variant:normal;font-weight:normal;writing-mode:lr-tb;fill:#000000;fill-opacity:1;fill-rule:nonzero;stroke:none;font-family:Helvetica;-inkscape-font-specification:Helvetica">10</tspan></text>
</g><path
       inkscape:connector-curvature="0"
       id="path30"
       style="fill:none;stroke:#000000;stroke-width:0.5;stroke-linecap:butt;stroke-linejoin:miter;stroke-miterlimit:3.79999995;stroke-opacity:1;stroke-dasharray:none"
       d="m 46.9,93.15 1.55,0 m 298.9,0 -1.55,0 m -298.9,12.75 1.55,0 m 298.9,0 -1.55,0 m -298.9,6.5 1.55,0 m 298.9,0 -1.55,0 m -298.9,3.1 3.15,0 m 297.3,0 -3.15,0" /><g
       id="g32"><text
         id="text34"
         transform="matrix(1,0,0,-1,31.0249,113.165)"><tspan
           id="tspan36"
           sodipodi:role="line"
           y="0"
           x="0 3.892 7.7839999"
           style="font-size:7px;font-variant:normal;font-weight:normal;writing-mode:lr-tb;fill:#000000;fill-opacity:1;fill-rule:nonzero;stroke:none;font-family:Helvetica;-inkscape-font-specification:Helvetica">100</tspan></text>
</g><path
       inkscape:connector-curvature="0"
       id="path38"
       style="fill:none;stroke:#000000;stroke-width:0.5;stroke-linecap:butt;stroke-linejoin:miter;stroke-miterlimit:3.79999995;stroke-opacity:1;stroke-dasharray:none"
       d="m 46.9,125.15 1.55,0 m 298.9,0 -1.55,0 m -298.9,12.75 1.55,0 m 298.9,0 -1.55,0 m -298.9,6.5 1.55,0 m 298.9,0 -1.55,0 m -298.9,3.15 3.15,0 m 297.3,0 -3.15,0" /><g
       id="g40"><text
         id="text42"
         transform="matrix(1,0,0,-1,27.1331,145.215)"><tspan
           id="tspan44"
           sodipodi:role="line"
           y="0"
           x="0 3.892 7.7839999 11.676"
           style="font-size:7px;font-variant:normal;font-weight:normal;writing-mode:lr-tb;fill:#000000;fill-opacity:1;fill-rule:nonzero;stroke:none;font-family:Helvetica;-inkscape-font-specification:Helvetica">1000</tspan></text>
</g><path
       inkscape:connector-curvature="0"
       id="path46"
       style="fill:none;stroke:#000000;stroke-width:0.5;stroke-linecap:butt;stroke-linejoin:miter;stroke-miterlimit:3.79999995;stroke-opacity:1;stroke-dasharray:none"
       d="m 46.9,157.15 1.55,0 m 298.9,0 -1.55,0 m -298.9,12.75 1.55,0 m 298.9,0 -1.55,0 m -298.9,6.55 1.55,0 m 298.9,0 -1.55,0 m -298.9,3.1 3.15,0 m 297.3,0 -3.15,0" /><g
       id="g48"><text
         id="text50"
         transform="matrix(1,0,0,-1,23.2413,177.215)"><tspan
           id="tspan52"
           sodipodi:role="line"
           y="0"
           x="0 3.892 7.7839999 11.676 15.568"
           style="font-size:7px;font-variant:normal;font-weight:normal;writing-mode:lr-tb;fill:#000000;fill-opacity:1;fill-rule:nonzero;stroke:none;font-family:Helvetica;-inkscape-font-specification:Helvetica">10000</tspan></text>
</g><path
       inkscape:connector-curvature="0"
       id="path54"
       style="fill:none;stroke:#000000;stroke-width:0.5;stroke-linecap:butt;stroke-linejoin:miter;stroke-miterlimit:3.79999995;stroke-opacity:1;stroke-dasharray:none"
       d="m 46.9,189.15 1.55,0 m 298.9,0 -1.55,0 m -298.9,12.75 1.55,0 m 298.9,0 -1.55,0 m -298.9,6.55 1.55,0 m 298.9,0 -1.55,0 m -298.9,3.1 3.15,0 m 297.3,0 -3.15,0" /><g
       id="g56"><text
         id="text58"
         transform="matrix(1,0,0,-1,19.3495,209.215)"><tspan
           id="tspan60"
           sodipodi:role="line"
           y="0"
           x="0 3.892 7.7839999 11.676 15.568 19.459999"
           style="font-size:7px;font-variant:normal;font-weight:normal;writing-mode:lr-tb;fill:#000000;fill-opacity:1;fill-rule:nonzero;stroke:none;font-family:Helvetica;-inkscape-font-specification:Helvetica">100000</tspan></text>
</g><path
       inkscape:connector-curvature="0"
       id="path62"
       style="fill:none;stroke:#000000;stroke-width:0.5;stroke-linecap:butt;stroke-linejoin:miter;stroke-miterlimit:3.79999995;stroke-opacity:1;stroke-dasharray:none"
       d="m 46.9,221.2 1.55,0 m 298.9,0 -1.55,0 m -298.9,12.7 1.55,0 m 298.9,0 -1.55,0 m -298.9,6.55 1.55,0 m 298.9,0 -1.55,0 m -298.9,3.1 3.15,0 m 297.3,0 -3.15,0" /><text
       transform="scale(1,-1)"
       id="text66"
       x="19.1534"
       y="-241.215"><tspan
         style="font-size:7px;font-variant:normal;font-weight:normal;writing-mode:lr-tb;fill:#000000;fill-opacity:1;fill-rule:nonzero;stroke:none;font-family:Helvetica;-inkscape-font-specification:Helvetica"
         x="19.1534 23.045401 26.937401 31.0254 34.9174 38.809399"
         y="-241.215"
         sodipodi:role="line"
         id="tspan68">1e+006</tspan></text>
<text
       transform="matrix(0.70710678,-0.70710678,-0.70710678,-0.70710678,0,0)"
       id="text70"
       x="42.214344"
       y="-107.1068"
       style="font-size:12.00000381px"><tspan
         style="font-size:6.00000381px;font-variant:normal;font-weight:normal;writing-mode:lr-tb;fill:#000000;fill-opacity:1;fill-rule:nonzero;stroke:none;font-family:Helvetica;-inkscape-font-specification:Helvetica"
         x="42.214344 45.214348 48.55035 51.55035 53.548351 57.550354 60.886356 62.218357 65.554359 66.88636 70.222366 73.558365"
         y="-107.1068"
         sodipodi:role="line"
         id="tspan72">soc-Epinions</tspan><tspan
         style="font-size:6.00000381px;font-variant:normal;font-weight:normal;writing-mode:lr-tb;fill:#000000;fill-opacity:1;fill-rule:nonzero;stroke:none;font-family:Helvetica;-inkscape-font-specification:Helvetica"
         x="84.711472 87.711472 91.047478 94.383476 98.049477 101.38548 104.72148"
         y="-149.60393"
         sodipodi:role="line"
         id="tspan74">youTube</tspan><tspan
         style="font-size:6.00000381px;font-variant:normal;font-weight:normal;writing-mode:lr-tb;fill:#000000;fill-opacity:1;fill-rule:nonzero;stroke:none;font-family:Helvetica;-inkscape-font-specification:Helvetica"
         x="127.17329 130.17331 133.50931 136.50931 138.50731 141.84331 143.17531 146.17531 149.51132 152.51132 155.84731 159.18332 161.1813 164.51732 167.85332"
         y="-192.06575"
         sodipodi:role="line"
         id="tspan76">soc-LiveJournal</tspan><tspan
         style="font-size:6.00000381px;font-variant:normal;font-weight:normal;writing-mode:lr-tb;fill:#000000;fill-opacity:1;fill-rule:nonzero;stroke:none;font-family:Helvetica;-inkscape-font-specification:Helvetica"
         x="169.67043 173.00642 176.00642 179.34242 181.34042 184.67644 188.01244"
         y="-234.56288"
         sodipodi:role="line"
         id="tspan78">ukgraph</tspan></text>
<path
       inkscape:connector-curvature="0"
       id="path80"
       style="fill:none;stroke:#000000;stroke-width:0.5;stroke-linecap:butt;stroke-linejoin:miter;stroke-miterlimit:3.79999995;stroke-opacity:1;stroke-dasharray:none"
       d="m 46.9,51.5 300.45,0 0,192.05 -300.45,0 0,-192.05 z" /><text
       transform="scale(1,-1)"
       id="text88"
       x="82.878899"
       y="-234.89999"><tspan
         style="font-size:6px;font-variant:normal;font-weight:normal;writing-mode:lr-tb;fill:#000000;fill-opacity:1;fill-rule:nonzero;stroke:none;font-family:Helvetica;-inkscape-font-specification:Helvetica"
         x="82.878899 86.880898 90.546898 94.548897 98.214897 101.8809 103.5489 105.2169 108.5529 111.5529 112.8849 116.2209 119.5569 121.2249 124.5609 126.2289 131.2269 134.5629 137.5629 140.8989 142.2309 145.56689 148.90291"
         y="-234.89999"
         sodipodi:role="line"
         id="tspan90">STEFFI using 5 Machines</tspan></text>
<path
       inkscape:connector-curvature="0"
       id="path92"
       style="fill:#e5007e;fill-opacity:1;fill-rule:nonzero;stroke:none"
       d="m 156.1,235.15 19.95,0 0,3.5 -19.95,0 0,-3.5 z" /><path
       inkscape:connector-curvature="0"
       id="path94"
       style="fill:#e5007e;fill-opacity:1;fill-rule:nonzero;stroke:none"
       d="m 81.25,51.5 8.6,0 0,44.65 -8.6,0 0,-44.65 z" /><path
       inkscape:connector-curvature="0"
       id="path96"
       style="fill:#e5007e;fill-opacity:1;fill-rule:nonzero;stroke:none"
       d="m 141.35,51.5 8.6,0 0,60.65 -8.6,0 0,-60.65 z" /><path
       inkscape:connector-curvature="0"
       id="path98"
       style="fill:#e5007e;fill-opacity:1;fill-rule:nonzero;stroke:none"
       d="m 201.4,51.5 8.65,0 0,66.6 -8.65,0 0,-66.6 z" /><path
       inkscape:connector-curvature="0"
       id="path100"
       style="fill:#e5007e;fill-opacity:1;fill-rule:nonzero;stroke:none"
       d="m 261.5,51.5 8.65,0 0,41.8 -8.65,0 0,-41.8 z" /><g
       id="g102"><text
         id="text104"
         transform="matrix(1,0,0,-1,79.543,227.9)"><tspan
           id="tspan106"
           sodipodi:role="line"
           y="0"
           x="0 4.0019999 7.6680002 11.67 15.336 19.002001 20.67 22.337999 25.674 28.674 30.006001 33.341999 36.678001 38.346001 41.681999 45.018002 46.686001 51.683998 55.02 58.02 61.355999 62.688 66.024002 69.360001"
           style="font-size:6px;font-variant:normal;font-weight:normal;writing-mode:lr-tb;fill:#000000;fill-opacity:1;fill-rule:nonzero;stroke:none;font-family:Helvetica;-inkscape-font-specification:Helvetica">STEFFI using 10 Machines</tspan></text>
</g><path
       inkscape:connector-curvature="0"
       id="path108"
       style="fill:#e5007e;fill-opacity:0.49411765;fill-rule:nonzero;stroke:none"
       d="m 156.1,228.15 19.95,0 0,3.5 -19.95,0 0,-3.5 z" /><path
       inkscape:connector-curvature="0"
       id="path110"
       style="fill:#e5007e;fill-opacity:0.49411765;fill-rule:nonzero;stroke:none"
       d="m 89.8,51.5 8.65,0 0,49.2 -8.65,0 0,-49.2 z" /><path
       inkscape:connector-curvature="0"
       id="path112"
       style="fill:#e5007e;fill-opacity:0.49411765;fill-rule:nonzero;stroke:none"
       d="m 149.9,51.5 8.65,0 0,59.25 -8.65,0 0,-59.25 z" /><path
       inkscape:connector-curvature="0"
       id="path114"
       style="fill:#e5007e;fill-opacity:0.49411765;fill-rule:nonzero;stroke:none"
       d="m 210,51.5 8.65,0 0,57.55 -8.65,0 0,-57.55 z" /><path
       inkscape:connector-curvature="0"
       id="path116"
       style="fill:#e5007e;fill-opacity:0.49411765;fill-rule:nonzero;stroke:none"
       d="m 270.1,51.5 8.65,0 0,50.6 -8.65,0 0,-50.6 z" /><g
       id="g118"><text
         id="text120"
         transform="matrix(1,0,0,-1,90.2105,220.9)"><tspan
           id="tspan122"
           sodipodi:role="line"
           y="0"
           x="0 3.6659999 4.9980001 6.6659999 10.002 13.338 15.006 18.341999 21.341999 22.674 26.01 29.346001 31.014 34.349998 36.018002 41.015999 44.352001 47.352001 50.688 52.02 55.355999 58.692001"
           style="font-size:6px;font-variant:normal;font-weight:normal;writing-mode:lr-tb;fill:#000000;fill-opacity:1;fill-rule:nonzero;stroke:none;font-family:Helvetica;-inkscape-font-specification:Helvetica">Titan using 5 Machines</tspan></text>
</g><path
       inkscape:connector-curvature="0"
       id="path124"
       style="fill:#646464;fill-opacity:1;fill-rule:nonzero;stroke:none"
       d="m 156.1,221.15 19.95,0 0,3.5 -19.95,0 0,-3.5 z" /><path
       inkscape:connector-curvature="0"
       id="path126"
       style="fill:#646464;fill-opacity:1;fill-rule:nonzero;stroke:none"
       d="m 98.4,51.5 8.65,0 0,90.9 -8.65,0 0,-90.9 z" /><path
       inkscape:connector-curvature="0"
       id="path128"
       style="fill:#646464;fill-opacity:1;fill-rule:nonzero;stroke:none"
       d="m 158.5,51.5 8.65,0 0,119.3 -8.65,0 0,-119.3 z" /><path
       inkscape:connector-curvature="0"
       id="path130"
       style="fill:#646464;fill-opacity:1;fill-rule:nonzero;stroke:none"
       d="m 218.6,51.5 8.6,0 0,118.55 -8.6,0 0,-118.55 z" /><path
       inkscape:connector-curvature="0"
       id="path132"
       style="fill:#646464;fill-opacity:1;fill-rule:nonzero;stroke:none"
       d="m 278.7,51.5 8.6,0 0,94 -8.6,0 0,-94 z" /><g
       id="g134"><text
         id="text136"
         transform="matrix(1,0,0,-1,86.8746,213.9)"><tspan
           id="tspan138"
           sodipodi:role="line"
           y="0"
           x="0 3.6659999 4.9980001 6.6659999 10.002 13.338 15.006 18.341999 21.341999 22.674 26.01 29.346001 31.014 34.349998 37.686001 39.354 44.352001 47.688 50.688 54.023998 55.355999 58.692001 62.028"
           style="font-size:6px;font-variant:normal;font-weight:normal;writing-mode:lr-tb;fill:#000000;fill-opacity:1;fill-rule:nonzero;stroke:none;font-family:Helvetica;-inkscape-font-specification:Helvetica">Titan using 10 Machines</tspan></text>
</g><path
       inkscape:connector-curvature="0"
       id="path140"
       style="fill:#969696;fill-opacity:1;fill-rule:nonzero;stroke:none"
       d="m 156.1,214.15 19.95,0 0,3.5 -19.95,0 0,-3.5 z" /><path
       inkscape:connector-curvature="0"
       id="path142"
       style="fill:#969696;fill-opacity:1;fill-rule:nonzero;stroke:none"
       d="m 107,51.5 8.6,0 0,90.3 -8.6,0 0,-90.3 z" /><path
       inkscape:connector-curvature="0"
       id="path144"
       style="fill:#969696;fill-opacity:1;fill-rule:nonzero;stroke:none"
       d="m 167.1,51.5 8.6,0 0,121.7 -8.6,0 0,-121.7 z" /><path
       inkscape:connector-curvature="0"
       id="path146"
       style="fill:#969696;fill-opacity:1;fill-rule:nonzero;stroke:none"
       d="m 227.15,51.5 8.65,0 0,127.4 -8.65,0 0,-127.4 z" /><path
       inkscape:connector-curvature="0"
       id="path148"
       style="fill:#969696;fill-opacity:1;fill-rule:nonzero;stroke:none"
       d="m 287.25,51.5 8.65,0 0,97.8 -8.65,0 0,-97.8 z" /><g
       id="g150"><text
         id="text152"
         transform="matrix(1,0,0,-1,136.229,206.9)"><tspan
           id="tspan154"
           sodipodi:role="line"
           y="0"
           x="0 4.3319998 7.6680002 11.004 14.34"
           style="font-size:6px;font-variant:normal;font-weight:normal;writing-mode:lr-tb;fill:#000000;fill-opacity:1;fill-rule:nonzero;stroke:none;font-family:Helvetica;-inkscape-font-specification:Helvetica">Neo4j</tspan></text>
</g><path
       inkscape:connector-curvature="0"
       id="path156"
       style="fill:#cccccc;fill-opacity:1;fill-rule:nonzero;stroke:none"
       d="m 156.1,207.15 19.95,0 0,3.5 -19.95,0 0,-3.5 z" /><path
       inkscape:connector-curvature="0"
       id="path158"
       style="fill:#cccccc;fill-opacity:1;fill-rule:nonzero;stroke:none"
       d="m 115.55,51.5 8.65,0 0,50.3 -8.65,0 0,-50.3 z" /><path
       inkscape:connector-curvature="0"
       id="path160"
       style="fill:#cccccc;fill-opacity:1;fill-rule:nonzero;stroke:none"
       d="m 175.65,51.5 8.65,0 0,78.5 -8.65,0 0,-78.5 z" /><path
       inkscape:connector-curvature="0"
       id="path162"
       style="fill:#cccccc;fill-opacity:1;fill-rule:nonzero;stroke:none"
       d="m 235.75,51.5 8.65,0 0,105.3 -8.65,0 0,-105.3 z" /><path
       inkscape:connector-curvature="0"
       id="path164"
       style="fill:#cccccc;fill-opacity:1;fill-rule:nonzero;stroke:none"
       d="m 295.85,51.5 8.65,0 0,120 -8.65,0 0,-120 z" /><path
       inkscape:connector-curvature="0"
       id="path166"
       style="fill:none;stroke:#000000;stroke-width:0.5;stroke-linecap:butt;stroke-linejoin:miter;stroke-miterlimit:3.79999995;stroke-opacity:1;stroke-dasharray:none"
       d="m 46.9,51.5 300.45,0 0,192.05 -300.45,0 0,-192.05 z" /><text
       xml:space="preserve"
       style="font-size:8px;font-style:normal;font-variant:normal;font-weight:normal;font-stretch:normal;text-align:start;line-height:125%;letter-spacing:0px;word-spacing:0px;writing-mode:lr-tb;text-anchor:start;fill:#000000;fill-opacity:1;stroke:none;font-family:Arial;-inkscape-font-specification:Arial"
       x="93.277367"
       y="10.694412"
       id="text3999"
       sodipodi:linespacing="125%"
       transform="matrix(0,1,1,0,0,0)"><tspan
         sodipodi:role="line"
         id="tspan4001"
         x="93.277367"
         y="10.694412"
         style="font-size:8px;font-style:normal;font-variant:normal;font-weight:normal;font-stretch:normal;text-align:start;line-height:125%;writing-mode:lr-tb;text-anchor:start;font-family:Arial;-inkscape-font-specification:Arial">Processing time in ms (log scale)</tspan></text>
</g></svg>